<svg width="14" height="14" viewBox="0 0 14 14" fill="none" xmlns="http://www.w3.org/2000/svg">
<path d="M7.83184 7.00725L10.9194 3.91967C10.9751 3.86586 11.0196 3.80149 11.0501 3.73032C11.0807 3.65915 11.0968 3.5826 11.0975 3.50515C11.0982 3.4277 11.0834 3.35088 11.0541 3.27919C11.0247 3.2075 10.9814 3.14237 10.9267 3.0876C10.8719 3.03283 10.8068 2.98952 10.7351 2.96019C10.6634 2.93086 10.5866 2.9161 10.5091 2.91677C10.4317 2.91744 10.3551 2.93354 10.2839 2.96411C10.2128 2.99468 10.1484 3.03912 10.0946 3.09483L7.00701 6.18242L3.91942 3.09483C3.8094 2.98857 3.66205 2.92978 3.5091 2.93111C3.35616 2.93244 3.20985 2.99378 3.10169 3.10194C2.99354 3.21009 2.93219 3.3564 2.93086 3.50935C2.92953 3.6623 2.98833 3.80965 3.09459 3.91967L6.18217 7.00725L3.09459 10.0948C3.03887 10.1486 2.99443 10.213 2.96386 10.2842C2.93329 10.3553 2.9172 10.4319 2.91653 10.5093C2.91585 10.5868 2.93061 10.6636 2.95994 10.7353C2.98927 10.807 3.03259 10.8721 3.08736 10.9269C3.14213 10.9817 3.20726 11.025 3.27895 11.0543C3.35064 11.0836 3.42745 11.0984 3.50491 11.0977C3.58236 11.0971 3.65891 11.081 3.73007 11.0504C3.80124 11.0198 3.86561 10.9754 3.91942 10.9197L7.00701 7.83208L10.0946 10.9197C10.2046 11.0259 10.352 11.0847 10.5049 11.0834C10.6579 11.0821 10.8042 11.0207 10.9123 10.9126C11.0205 10.8044 11.0818 10.6581 11.0831 10.5052C11.0845 10.3522 11.0257 10.2049 10.9194 10.0948L7.83184 7.00725Z" fill="#CB1D32"/>
</svg>
